<?xml version="1.0" encoding="UTF-8" standalone="no"?>
<!-- Created with Inkscape (http://www.inkscape.org/) -->

<svg
   version="1.1"
   id="svg1"
   width="1500"
   height="1500"
   viewBox="0 0 1500 1500"
   sodipodi:docname="campfirelogo.svg"
   inkscape:export-filename="logo.png"
   inkscape:export-xdpi="11.034483"
   inkscape:export-ydpi="11.034483"
   inkscape:version="1.3.2 (091e20e, 2023-11-25, custom)"
   xmlns:inkscape="http://www.inkscape.org/namespaces/inkscape"
   xmlns:sodipodi="http://sodipodi.sourceforge.net/DTD/sodipodi-0.dtd"
   xmlns="http://www.w3.org/2000/svg"
   xmlns:svg="http://www.w3.org/2000/svg">
  <defs
     id="defs1">
    <inkscape:path-effect
       effect="fillet_chamfer"
       id="path-effect49"
       is_visible="true"
       lpeversion="1"
       nodesatellites_param="F,0,0,1,0,0,0,1 @ F,0,0,1,0,0,0,1 @ F,0,0,1,0,0,0,1 @ F,0,0,1,0,0,0,1 @ F,0,0,1,0,0,0,1 @ F,0,0,1,0,0,0,1 @ F,0,0,1,0,0,0,1 @ F,0,0,1,0,0,0,1 @ F,0,0,1,0,0,0,1 @ F,0,0,1,0,0,0,1 @ F,0,0,1,0,0,0,1 @ F,0,0,1,0,0,0,1 @ F,0,0,1,0,0,0,1 @ F,0,0,1,0,0,0,1 @ F,0,0,1,0,0,0,1 @ F,0,0,1,0,0,0,1 @ F,0,0,1,0,0,0,1 @ F,0,0,1,0,0,0,1 @ F,0,0,1,0,0,0,1 @ F,0,0,1,0,0,0,1 @ F,0,0,1,0,0,0,1 @ F,0,0,1,0,0,0,1 @ F,0,0,1,0,0,0,1 @ F,0,0,1,0,0,0,1 @ F,0,0,1,0,0,0,1 @ F,0,0,1,0,0,0,1 @ F,0,0,1,0,0,0,1 @ F,0,0,1,0,0,0,1 @ F,0,0,1,0,0,0,1 @ F,0,0,1,0,0,0,1 @ F,0,0,1,0,0,0,1 @ F,0,0,1,0,0,0,1 @ F,0,0,1,0,0,0,1 @ F,0,0,1,0,0,0,1 @ F,0,0,1,0,0,0,1 @ F,0,0,1,0,0,0,1 @ F,0,0,1,0,0,0,1 @ F,0,0,1,0,0,0,1 @ F,0,0,1,0,0,0,1 @ F,0,0,1,0,3.7032626,0,1 @ F,0,0,1,0,0,0,1 @ F,0,0,1,0,0,0,1 @ F,0,0,1,0,0,0,1 @ F,0,0,1,0,0,0,1 @ F,0,0,1,0,0,0,1 @ F,0,0,1,0,0,0,1 @ F,0,0,1,0,0,0,1 @ F,0,0,1,0,0,0,1 @ F,0,0,1,0,0,0,1 @ F,0,0,1,0,0,0,1 @ F,0,0,1,0,0,0,1 @ F,0,0,1,0,0,0,1 @ F,0,0,1,0,0,0,1 @ F,0,0,1,0,0,0,1 @ F,0,0,1,0,0,0,1 @ F,0,0,1,0,0,0,1 @ F,0,0,1,0,0,0,1 @ F,0,0,1,0,0,0,1 @ F,0,0,1,0,0,0,1 @ F,0,0,1,0,0,0,1 @ F,0,0,1,0,0,0,1 @ F,0,0,1,0,0,0,1 @ F,0,0,1,0,0,0,1 @ F,0,0,1,0,0,0,1 @ F,0,0,1,0,0,0,1 @ F,0,0,1,0,0,0,1 @ F,0,0,1,0,0,0,1 @ F,0,0,1,0,0,0,1 @ F,0,0,1,0,0,0,1 @ F,0,0,1,0,0,0,1 @ F,0,0,1,0,0,0,1 @ F,0,0,1,0,0,0,1 @ F,0,0,1,0,0,0,1 @ F,0,0,1,0,0,0,1 @ F,0,0,1,0,0,0,1 @ F,0,0,1,0,0,0,1 @ F,0,0,1,0,0,0,1 @ F,0,0,1,0,0,0,1 @ F,0,0,1,0,0,0,1 @ F,0,0,1,0,0,0,1 @ F,0,0,1,0,0,0,1 @ F,0,0,1,0,0,0,1 @ F,0,0,1,0,0,0,1 @ F,0,0,1,0,0,0,1 @ F,0,0,1,0,0,0,1"
       radius="0"
       unit="px"
       method="auto"
       mode="F"
       chamfer_steps="1"
       flexible="false"
       use_knot_distance="true"
       apply_no_radius="true"
       apply_with_radius="true"
       only_selected="false"
       hide_knots="false" />
  </defs>
  <sodipodi:namedview
     id="namedview1"
     pagecolor="#505050"
     bordercolor="#eeeeee"
     borderopacity="1"
     inkscape:showpageshadow="0"
     inkscape:pageopacity="0"
     inkscape:pagecheckerboard="0"
     inkscape:deskcolor="#505050"
     inkscape:zoom="0.60009579"
     inkscape:cx="829.03431"
     inkscape:cy="645.73024"
     inkscape:window-width="2560"
     inkscape:window-height="1494"
     inkscape:window-x="-11"
     inkscape:window-y="-11"
     inkscape:window-maximized="1"
     inkscape:current-layer="svg1" />
  <g
     inkscape:groupmode="layer"
     id="layer12"
     inkscape:label="Background"
     style="display:none">
    <rect
       style="fill:#cb311d;fill-opacity:1;stroke:#f7debd;stroke-width:2;stroke-linejoin:bevel;stroke-dasharray:none;stroke-opacity:1;paint-order:stroke fill markers"
       id="rect54"
       width="1496.4277"
       height="1041.5004"
       x="1.6664007"
       y="1.6664007" />
  </g>
  <g
     inkscape:groupmode="layer"
     id="layer11"
     inkscape:label="Text"
     style="display:none">
    <text
       xml:space="preserve"
       style="font-style:normal;font-variant:normal;font-weight:normal;font-stretch:normal;font-size:306.667px;font-family:'Fonseca Rounded';-inkscape-font-specification:'Fonseca Rounded';fill:#f7debd;fill-opacity:1;stroke:#f7debd;stroke-width:2;stroke-linejoin:bevel;stroke-dasharray:none;stroke-opacity:1;paint-order:stroke fill markers"
       x="8.9216747"
       y="978.85358"
       id="text54"><tspan
         sodipodi:role="line"
         id="tspan54"
         x="8.9216747"
         y="978.85358"
         style="font-size:306.667px;fill:#f7debd;fill-opacity:1;stroke:#f7debd;stroke-opacity:1">CAMPFIRE</tspan></text>
  </g>
  <g
     id="g2"
     inkscape:label="Fire"
     transform="matrix(2.1533204,0,0,2.1533204,-786.62884,-172.43334)">
    <g
       inkscape:groupmode="layer"
       id="layer9"
       inkscape:label="logs">
      <path
         style="fill:#411c18;fill-opacity:1;stroke:#411c18;stroke-width:0.8332;stroke-linejoin:bevel;stroke-dasharray:none;stroke-opacity:1;paint-order:stroke fill markers"
         d="m 531.3735,758.17778 c -6.07194,-2.3028 -12.88374,-4.87745 -15.13732,-5.72145 -4.06674,-1.52306 -4.179,-1.60341 -14.9976,-10.73447 -12.38892,-10.45645 -14.3806,-12.46336 -21.26769,-21.43037 -9.23762,-12.02739 -16.4,-23.62947 -20.47525,-33.16709 -3.3583,-7.85969 -8.83788,-24.91038 -10.22352,-31.81235 -1.77366,-8.8347 -1.65533,-12.97902 0.50019,-17.51794 l 1.48907,-3.13555 48.15724,-36.6468 48.15725,-36.64681 34.07958,-20.18779 c 106.38762,-63.02106 149.36833,-88.32768 150.5327,-88.63217 0.85057,-0.22243 4.91671,2.96423 48.72783,38.18825 53.97711,43.39745 99.62387,80.41132 106.65066,86.4805 8.78572,7.58838 19.54555,16.14108 42.60182,33.86306 l 13.64808,10.49047 7.80683,2.97421 c 4.29373,1.63582 7.9152,3.14143 8.04768,3.3458 0.27445,0.42341 1.70414,17.59815 1.67606,20.13427 -0.0102,0.91652 -1.10649,5.79936 -2.43623,10.85075 l -2.41778,9.18436 -5.27379,8.52115 -5.27378,8.52115 -10.12997,10.01712 c -15.05114,14.88341 -26.76531,23.94448 -41.64789,32.21524 -6.62744,3.68309 -9.35084,4.82582 -16.12901,6.7677 -4.23049,1.21199 -4.80831,1.27173 -12.94697,1.33859 l -8.51888,0.07 -1.73317,-1.09917 c -2.38947,-1.5154 -4.14545,-2.82376 -39.55313,-29.47067 -34.30611,-25.81791 -45.56594,-34.4213 -56.24102,-42.97258 -9.72966,-7.79396 -15.19638,-11.79576 -25.41261,-18.60278 -11.23397,-7.48514 -21.66914,-14.2218 -22.89478,-14.78024 -0.83516,-0.38052 -1.4686,-0.097 -4.86352,2.17659 -5.72789,3.83602 -19.19357,13.93525 -23.27522,17.45635 -1.9476,1.68014 -12.25081,10.94754 -22.89602,20.59424 -34.26137,31.04768 -48.13378,43.25103 -70.9713,62.43236 -9.82776,8.25438 -12.4096,10.1761 -21.45491,15.96938 -16.42824,10.52184 -23.90616,15.16773 -24.40185,15.16043 -0.25403,-0.004 -5.42983,-1.89092 -11.50178,-4.19371 z"
         id="path54"
         inkscape:label="log shape" />
    </g>
    <g
       inkscape:groupmode="layer"
       id="layer7"
       inkscape:label="flames orange"
       style="display:inline">
      <path
         style="fill:#ff8423;fill-opacity:1;stroke:#ff8423;stroke-width:1.17832;stroke-linejoin:bevel;stroke-dasharray:none;stroke-opacity:1;paint-order:stroke fill markers"
         d="m 713.18011,630.57217 c -20.66202,-1.40778 -51.71068,-5.80907 -76.29642,-12.53563 -6.59973,-1.80777 -13.21537,-3.65919 -19.57327,-6.18934 -2.68097,-1.0669 -5.2034,-2.49595 -7.79003,-3.77472 -3.99807,-1.97655 -8.18108,-3.6349 -11.94688,-6.02448 -13.55702,-8.60257 -26.18305,-18.74229 -37.93966,-29.67751 -8.09357,-7.52811 -15.47053,-15.85519 -22.26574,-24.57319 -8.70595,-11.16941 -16.20122,-23.25369 -23.56574,-35.34969 -9.54886,-15.6837 -19.74023,-31.19214 -26.6894,-48.18827 -4.85904,-11.88412 -8.3951,-24.41878 -10.29069,-37.11718 -1.39223,-9.32641 -0.97454,-18.8531 -0.73296,-28.27976 0.3442,-13.43101 1.98846,-26.79756 3.10676,-40.18636 0.7983,-9.5576 3.48465,-17.19386 2.57196,-28.65747 -0.10088,-1.42421 0.17914,-8.67815 0.0796,-10.10245 -0.93827,-12.62595 -1.84818,-26.0752 -7.55231,-37.49416 -0.68487,-1.80543 -4.70349,-8.19392 -5.45059,-9.9745 -2.92501,-6.97121 -10.50375,-18.62316 -10.50375,-18.62316 l -5.88641,-12.12997 25.94458,18.93479 c 0,0 15.83052,12.60692 22.90768,19.80403 9.33678,8.64768 17.99975,18.29246 25.22574,28.81511 6.77006,10.95223 6.43682,9.79843 8.88065,15.10253 2.82103,6.12278 5.40393,22.20875 6.59056,19.12026 7.03475,-18.30957 -7.79178,-19.69483 2.58524,-80.89949 1.85115,-10.55083 4.99077,-23.92595 7.44271,-34.3812 8.04112,-24.03105 18.56991,-58.28752 4.45844,-81.96447 -3.93759,-6.66734 -8.3558,-13.05455 -12.98516,-19.26157 -2.39472,-3.21083 -5.14958,-6.13808 -7.63493,-9.27929 -1.18648,-1.49958 -3.47276,-4.566 -3.47276,-4.566 -5.57754,-5.44197 -12.30001,-13.590931 -13.16817,-21.596814 2.63353,2.122517 7.21416,5.981812 10.39186,6.917075 0,0 9.08937,2.905179 13.43865,4.843389 4.78409,2.13198 9.3611,4.72346 13.8453,7.4299 11.91595,7.19188 24.11651,14.21299 34.61317,23.35265 10.65128,9.27429 21.64678,19.07324 28.3028,31.52955 7.65173,14.31971 11.22517,30.97874 12.04929,47.19367 0.49707,9.78002 -1.97668,19.55282 -4.3441,29.05499 -1.33515,5.35894 -3.80335,10.37239 -5.52427,15.62018 -6.42552,19.59401 -13.90385,38.98425 -17.91652,59.21074 -0.82559,4.16152 -0.90856,8.43759 -1.24353,12.66697 -0.55922,7.06067 -1.86991,14.15176 -1.27872,21.20982 1.35943,16.22992 4.54996,32.6534 11.01283,47.60298 1.63334,3.77816 2.74884,10.52087 6.85725,10.26933 1.19336,-0.0731 1.2705,-2.05815 1.61304,-3.20362 0.97929,-3.27484 1.07343,-6.77034 1.17358,-10.18699 0.16714,-5.70175 -1.11829,-11.38371 -0.95932,-17.08569 0.36972,-13.26169 1.70402,-26.57061 4.44171,-39.55191 3.30044,-15.64973 8.8894,-30.75322 14.35671,-45.78371 4.95497,-13.62198 10.47981,-27.05756 16.68835,-40.1558 11.92556,-25.15952 25.39154,-49.59059 39.41281,-73.6452 6.46906,-11.09819 9.47752,-24.56139 18.93824,-34.2335 1.91556,0.17361 4.77729,11.06414 5.49097,12.85025 2.32804,5.8263 6.09909,15.49398 8.59457,21.25055 3.92376,9.05133 8.09397,21.32442 10.13732,27.17872 3.73667,10.7057 7.19511,40.02746 8.85034,45.52838 2.60632,8.66176 4.9922,25.49366 6.49871,45.84709 2.51748,18.00493 1.90937,36.08375 0.91017,54.20286 -0.75966,12.52505 -4.37373,32.76031 -3.86399,42.34049 0.0389,0.73068 -0.30768,1.99064 0.40475,2.15751 1.02073,0.23908 1.27329,-1.66601 1.89232,-2.51209 3.76095,-4.66956 6.59511,-9.84763 9.56159,-15.03127 2.57886,-4.3576 5.59517,-8.50689 7.5736,-13.1679 4.4403,-10.46094 6.72419,-21.72446 9.45069,-32.75685 4.48225,-18.13676 6.98672,-36.71981 11.33695,-54.88869 2.4869,-10.38662 5.00856,-20.79459 8.43308,-30.91088 3.88677,-11.48181 8.3406,-22.81411 13.70714,-33.68329 3.98218,-8.06535 8.76111,-15.72792 13.6597,-23.27189 7.16721,-11.03771 14.81423,-21.78348 22.97373,-32.1093 2.61094,-3.30413 8.29651,-9.52767 8.29651,-9.52767 l 11.31162,-7.09937 c 4.98883,-3.13108 14.95572,-4.95764 15.3362,-4.88586 0.93811,0.17699 13.67988,-3.39554 21.98025,17.25204 3.49575,8.69586 13.0856,21.64818 13.0856,22.55995 0,3.30934 -25.79285,-21.41808 -37.124,-14.91141 -8.66853,4.97772 -30.37188,29.64829 -20.13828,71.14126 3.2755,13.28076 4.92649,26.23936 6.98929,33.87679 5.10993,18.91928 7.52631,28.38626 14.08223,47.55583 5.49869,16.07823 7.47335,38.36171 14.29499,56.57848 0.75283,2.01037 1.0527,4.67075 2.91167,5.74433 4.01965,2.32139 9.56087,0.88089 13.90497,-0.75471 9.25646,-3.48515 15.76263,-11.96573 23.33209,-18.33216 4.93126,-4.14753 9.08942,-9.23749 14.37104,-12.92853 6.28719,-4.39378 19.88937,-11.92961 20.33258,-10.77462 0.17312,0.45114 -4.96214,9.40718 -6.89295,14.35 -3.34883,8.57292 -6.76996,17.29249 -8.08062,26.40247 -2.70596,18.80825 2.41859,38.08368 0.6397,57.00214 -0.60441,6.42787 -2.21886,12.73391 -3.82384,18.98745 -2.54497,9.91603 -5.5865,19.7225 -9.18545,29.30645 -3.26152,8.68539 -7.20237,17.10826 -11.21475,25.47332 -4.82537,10.05999 -9.14656,20.48696 -15.44983,29.69327 -8.8768,12.9651 -19.71083,24.60129 -31.11622,35.40908 -3.82585,3.62539 -22.3262,17.6166 -30.43897,22.25918 -14.96202,8.56209 -31.62448,13.79039 -46.95729,21.66924 -11.74441,5.75198 -24.30104,9.92901 -36.99823,12.99764 -7.03493,1.60698 -14.3075,1.96628 -21.5044,2.49277 -29.86185,2.18459 -49.46529,1.81836 -39.47383,1.43408 10.83162,-0.41659 7e-5,0 10e-5,0 z"
         id="path49"
         sodipodi:nodetypes="saaaaaaaaaaacccccccccasssasccccccsssssaaaccccaaaaccccsssacccaaaaaaaacssssssssaaaaasaaaaaaaaaaaass"
         inkscape:label="flame shape" />
    </g>
    <g
       inkscape:groupmode="layer"
       id="layer8"
       inkscape:label="flames yellow"
       transform="translate(24.162809,8.7486034)">
      <path
         style="display:inline;fill:#ffb70c;fill-opacity:1;stroke:#ff8423;stroke-width:2;stroke-linejoin:bevel;stroke-dasharray:none;stroke-opacity:1;paint-order:stroke fill markers"
         d="m 538.24741,434.09737 9.9984,39.16041 c 0,0 8.82072,27.16556 14.99761,39.99362 6.10626,12.6814 12.62721,25.45279 21.6632,36.24422 7.20418,8.60373 15.99185,15.98279 25.41262,22.0798 15.54385,10.05981 32.63996,18.1252 50.40862,23.32961 6.86038,2.0094 14.09859,2.82419 21.2466,2.9162 6.28693,0.0809 12.53942,-1.08401 18.74701,-2.083 7.28711,-1.1727 14.61287,-2.39856 21.66321,-4.5826 8.32623,-2.57928 16.20191,-6.44833 24.16281,-9.99841 9.98399,-4.45225 20.07723,-8.75824 29.57861,-14.1644 7.39804,-4.20938 14.6415,-8.79575 21.24661,-14.16441 9.0679,-7.37041 17.56098,-15.56441 24.99601,-24.57941 9.75322,-11.8258 25.4126,-38.32721 25.4126,-38.32721 l 15.83081,-32.07821 9.9984,-23.74621 -22.16496,19.94847 -2.83105,2.54794 -15.4142,6.6656 -14.16441,3.3328 h -10.8316 l -7.9154,-3.7494 c -11.01041,-1.34873 -1.94413,-37.35515 -4.166,-47.49242 l -18.74701,19.99681 -11.66481,12.49801 c 0,0 -5.09777,8.41109 -8.332,12.0814 -2.34067,2.65628 -5.21819,4.78881 -7.9154,7.0822 -3.53578,3.0064 -6.52375,7.02161 -10.83161,8.74861 -3.10419,1.24446 -6.67066,1.1661 -9.9984,0.8332 -4.46036,-0.44621 -8.96073,-1.63737 -12.91461,-3.74941 -3.99915,-2.13622 -7.5868,-5.20488 -10.415,-8.7486 -3.40924,-4.27176 -7.4988,-14.581 -7.4988,-14.581 l -12.49801,-25.82921 -14.1644,-14.58101 -1.66641,18.33041 -2.4996,10.8316 -4.166,14.99761 -4.9992,11.2482 -6.249,10.83161 -6.6656,8.332 -9.5818,-4.9992 -10.41501,-10.41501 -14.99761,-16.664 -13.3312,-16.66401 -14.16441,-16.66401 -12.0814,-10.415 c 0,0 4.85163,15.96938 4.5826,24.16281 -0.27302,8.31478 -6.249,24.1628 -6.249,24.1628 l -11.24821,-17.9138 -15.4142,-16.664 -10.41501,-13.74781 z"
         id="path51"
         sodipodi:nodetypes="ccaaaaaaaaaaaccccccccccccaaaaaacccccccccccccccaccccc"
         inkscape:label="inner flame shape" />
    </g>
  </g>
</svg>
